<svg xmlns="http://www.w3.org/2000/svg" xmlns:xlink="http://www.w3.org/1999/xlink" viewBox="0 0 28 28" id="Cloud">
  <defs>
    <linearGradient xlink:href="#a" id="b" x1="868.253" x2="937.656" y1="521.354" y2="588.736" gradientTransform="translate(-774.065 -462.595)scale(.89708)" gradientUnits="userSpaceOnUse"></linearGradient>
    <linearGradient id="a">
      <stop offset="0" stop-color="#87fdf4" class="stopColor24f3d2 svgShape"></stop>
      <stop offset=".394" stop-color="#383ae9" class="stopColor0674f0 svgShape"></stop>
      <stop offset=".507" stop-color="#9245f4" class="stopColor6961b5 svgShape"></stop>
      <stop offset=".813" stop-color="#d33322" class="stopColorf34660 svgShape"></stop>
      <stop offset="1" stop-color="#ee1d07" class="stopColoree078d svgShape"></stop>
    </linearGradient>
  </defs>
  <rect width="28" height="28" fill="url(#b)" rx="5.917" ry="5.917"></rect>
  <path fill="#ffffff" d="M12.5 6.9c-.3 0-.5.2-.5.5v1c0 .3.2.5.5.5s.5-.2.5-.5v-1c0-.3-.2-.5-.5-.5zm-3.037.739a.572.572 0 0 0-.195.072c-.26.15-.334.422-.184.682l.5.867c.15.26.424.331.684.181.26-.15.333-.421.183-.681l-.5-.867c-.112-.195-.295-.285-.488-.254zm6.308.115c-.193-.03-.375.06-.488.256l-.5.865c-.15.26-.076.534.184.684.26.15.533.076.683-.184l.5-.865c.15-.26.077-.534-.183-.684a.572.572 0 0 0-.196-.072zm-8.41 1.955a.5.5 0 0 0-.318.22c-.17.247-.12.525.127.696l.822.568c.247.171.525.122.696-.125.17-.246.12-.526-.127-.697l-.823-.568a.502.502 0 0 0-.377-.094Zm5.139.146a3.472 3.472 0 0 0-3.5 3.5c0 .53.14.961.297 1.338-1.027.373-1.797 1.303-1.797 2.508C7.5 18.758 8.721 20 10.2 20H19c1.975 0 3.6-1.625 3.6-3.6a.5.5 0 0 0 0-.029 3.8 3.8 0 0 0-2.952-3.514C19.286 11.266 17.958 10 16.301 10c-.66 0-1.254.209-1.758.549a3.323 3.323 0 0 0-2.043-.694Zm0 1c.496 0 .864.23 1.215.471-.193.25-.353.527-.48.82-.015.03-.034.053-.047.083-.131-.016-.293-.073-.387-.073-.486 0-.913.133-1.287.35a3.087 3.087 0 0 0-1.383 1.367c-.06-.164-.131-.321-.131-.518 0-1.445 1.055-2.5 2.5-2.5zm3.8.145c1.234 0 2.338 1.012 2.505 2.266a.5.5 0 0 0 .43.43c1.247.166 2.263 1.246 2.359 2.716A2.61 2.61 0 0 1 19 19h-8.8c-.923 0-1.7-.755-1.7-1.799 0-1.043.777-1.8 1.7-1.8a.5.5 0 0 0 .493-.424c.005-.033.017-.062.024-.094.17-.59.534-1.107 1.023-1.416.312-.17.673-.266 1.06-.266.2 0 .295.007.376.047a.5.5 0 0 0 .71-.336c.021-.089.054-.172.085-.258.181-.46.463-.805.841-1.107a.5.5 0 0 0 .094-.098c.401-.277.88-.449 1.395-.449zm-9.8 1.9c-.3 0-.5.2-.5.5s.2.5.5.5h1c.3 0 .5-.2.5-.5s-.2-.5-.5-.5h-1z" class="colorffffff svgShape"></path>
</svg>
